<svg width="31" height="23" viewBox="0 0 31 23" fill="none" xmlns="http://www.w3.org/2000/svg">
<path d="M6.37545 10.7758C4.43262 10.7758 2.85205 9.20972 2.85205 7.28501C2.85205 5.36031 4.43262 3.79395 6.37545 3.79395C8.31828 3.79395 9.89861 5.36006 9.89861 7.28501C9.89861 9.20996 8.31828 10.7758 6.37545 10.7758ZM6.37545 4.77369C4.9727 4.77369 3.83179 5.90039 3.83179 7.28501C3.83179 8.66963 4.9727 9.79609 6.37545 9.79609C7.77795 9.79609 8.91886 8.66963 8.91886 7.28501C8.91886 5.90039 7.77795 4.77369 6.37545 4.77369Z" fill="#FC559B"/>
<path d="M7.79339 20.4412H1.64869C0.942538 20.4412 0.368164 19.8705 0.368164 19.169V17.5667C0.368164 14.2862 3.06319 11.6174 6.37595 11.6174C7.67901 11.6174 8.91911 12.024 9.96156 12.7931C10.1793 12.9538 10.2256 13.2605 10.0649 13.4782C9.90425 13.6957 9.59783 13.7422 9.37984 13.5816C8.50713 12.9376 7.46836 12.5972 6.37595 12.5972C3.60352 12.5972 1.34791 14.8266 1.34791 17.5667V19.169C1.34791 19.3302 1.48287 19.4615 1.64869 19.4615H7.79364C8.06404 19.4615 8.28351 19.681 8.28351 19.9514C8.28351 20.2218 8.06404 20.4412 7.79339 20.4412Z" fill="#FC559B"/>
<path d="M29.72 20.0706H23.5753C23.3049 20.0706 23.0854 19.8512 23.0854 19.5808C23.0854 19.3104 23.3049 19.0909 23.5753 19.0909H29.7202C29.8861 19.0909 30.021 18.9596 30.021 18.7984V17.1961C30.021 14.4557 27.7654 12.2266 24.993 12.2266C23.8349 12.2266 22.7045 12.6253 21.8098 13.3496C21.5996 13.5196 21.2913 13.4875 21.1208 13.2771C20.9508 13.0669 20.9829 12.7583 21.1935 12.5881C22.2619 11.7232 23.6113 11.2468 24.993 11.2468C28.3055 11.2468 31.0005 13.9156 31.0005 17.1961V18.7984C31.0005 19.4997 30.4261 20.0706 29.72 20.0706Z" fill="#FC559B"/>
<path d="M24.9929 10.5339C23.0501 10.5339 21.4697 8.96778 21.4697 7.04307C21.4697 5.11837 23.0501 3.552 24.9929 3.552C26.9357 3.552 28.5163 5.11812 28.5163 7.04307C28.5163 8.96802 26.9355 10.5339 24.9929 10.5339ZM24.9929 4.53174C23.5904 4.53174 22.4495 5.65845 22.4495 7.04307C22.4495 8.42769 23.5904 9.55415 24.9929 9.55415C26.3956 9.55415 27.5365 8.42769 27.5365 7.04307C27.5365 5.65845 26.3954 4.53174 24.9929 4.53174Z" fill="#FC559B"/>
<path d="M22.2354 22.0353H8.93782C8.05458 22.0353 7.33594 21.3221 7.33594 20.4452V18.1916C7.33594 13.6874 11.0369 10.0232 15.5866 10.0232C20.1363 10.0232 23.8373 13.6874 23.8373 18.1916V20.4452C23.8373 21.3221 23.1186 22.0353 22.2354 22.0353ZM15.5866 11.0032C11.5775 11.0032 8.31568 14.228 8.31568 18.1918V20.4455C8.31568 20.782 8.59491 21.0558 8.93782 21.0558H22.2351C22.578 21.0558 22.8573 20.782 22.8573 20.4455V18.1918C22.8575 14.228 19.5957 11.0032 15.5866 11.0032Z" fill="#FC559B"/>
<path d="M15.4158 9.45075C12.9194 9.45075 10.8882 7.43885 10.8882 4.96573C10.8882 2.49261 12.9192 0.480957 15.4158 0.480957C17.9125 0.480957 19.9435 2.49286 19.9435 4.96598C19.9435 7.43909 17.9122 9.45075 15.4158 9.45075ZM15.4158 1.4607C13.4595 1.4607 11.8679 3.03319 11.8679 4.96598C11.8679 6.89876 13.4595 8.47125 15.4158 8.47125C17.3721 8.47125 18.9637 6.89876 18.9637 4.96598C18.9637 3.03319 17.3721 1.4607 15.4158 1.4607Z" fill="#FC559B"/>
</svg>
