<svg width="44" height="44" viewBox="0 0 44 44" fill="none" xmlns="http://www.w3.org/2000/svg">
<path d="M43.6659 30.5227C43.4662 30.0932 43.1837 29.7074 42.8347 29.3872C42.4857 29.0671 42.0769 28.819 41.6318 28.6571C41.1867 28.4952 40.7141 28.4227 40.2409 28.4437C39.7678 28.4648 39.3034 28.579 38.8745 28.7797L29.5233 33.1331C29.8281 32.5838 29.9842 31.9645 29.9762 31.3364C29.9682 30.7083 29.7964 30.0931 29.4778 29.5518C29.1591 29.0104 28.7047 28.5616 28.1594 28.2498C27.6141 27.9379 26.9969 27.7738 26.3687 27.7737H15.5431C14.5872 27.773 13.6509 28.044 12.8432 28.5551C12.0355 29.0662 11.3897 29.7964 10.9812 30.6605H9.0477V28.4954C9.0477 28.304 8.97167 28.1204 8.83632 27.9851C8.70098 27.8497 8.51741 27.7737 8.326 27.7737H1.10892C0.917506 27.7737 0.733937 27.8497 0.59859 27.9851C0.463244 28.1204 0.387207 28.304 0.387207 28.4954V42.9296C0.387207 43.121 0.463244 43.3045 0.59859 43.4399C0.733937 43.5752 0.917506 43.6513 1.10892 43.6513H8.326C8.51741 43.6513 8.70098 43.5752 8.83632 43.4399C8.97167 43.3045 9.0477 43.121 9.0477 42.9296V41.4861H27.8944C28.421 41.4855 28.9411 41.3703 29.4186 41.1484L41.9244 35.3191C42.7885 34.9109 43.4564 34.1778 43.7826 33.2794C44.1087 32.3811 44.0668 31.3902 43.6659 30.5227ZM7.60429 42.2078H1.83062V29.2171H7.60429V42.2078ZM41.3138 34.0121L28.8088 39.8406C28.5222 39.9732 28.2102 40.0422 27.8944 40.0427H9.0477V32.1039H11.4654C11.6153 32.1038 11.7614 32.0571 11.8835 31.9702C12.0056 31.8833 12.0976 31.7605 12.1467 31.6189C12.3939 30.9159 12.8536 30.307 13.4621 29.8767C14.0706 29.4464 14.7978 29.2159 15.5431 29.2171H26.3687C26.9429 29.2171 27.4936 29.4452 27.8997 29.8513C28.3057 30.2573 28.5338 30.808 28.5338 31.3822C28.5338 31.9565 28.3057 32.5072 27.8997 32.9132C27.4936 33.3192 26.9429 33.5473 26.3687 33.5473H19.8733V34.9908H28.1549C28.6808 34.9901 29.2002 34.8749 29.677 34.653L39.4857 30.0868C40.004 29.8442 40.5974 29.8175 41.1353 30.0124C41.6733 30.2073 42.1119 30.6078 42.3545 31.126C42.4873 31.4146 42.5563 31.7285 42.5566 32.0462C42.5564 32.4578 42.4395 32.861 42.2196 33.2089C41.9996 33.5569 41.6856 33.8354 41.3138 34.0121Z" fill="#FC559B"/>
<path d="M12.656 14.7829C14.0835 14.7829 15.4788 14.3596 16.6656 13.5666C17.8525 12.7736 18.7775 11.6464 19.3238 10.3277C19.87 9.00895 20.0129 7.55783 19.7345 6.15786C19.456 4.75788 18.7686 3.47192 17.7593 2.46259C16.75 1.45327 15.464 0.765905 14.064 0.487432C12.6641 0.20896 11.2129 0.351882 9.89419 0.898126C8.57544 1.44437 7.44829 2.3694 6.65526 3.55624C5.86224 4.74309 5.43896 6.13844 5.43896 7.56584C5.44107 9.47928 6.20211 11.3138 7.55512 12.6668C8.90813 14.0198 10.7426 14.7808 12.656 14.7829ZM12.656 1.79217C13.798 1.79217 14.9142 2.13079 15.8637 2.76521C16.8132 3.39963 17.5532 4.30135 17.9902 5.35635C18.4272 6.41135 18.5416 7.57224 18.3188 8.69223C18.096 9.81221 17.5461 10.841 16.7386 11.6484C15.9312 12.4559 14.9024 13.0058 13.7824 13.2286C12.6625 13.4513 11.5016 13.337 10.4466 12.9C9.39156 12.463 8.48984 11.723 7.85542 10.7735C7.221 9.82404 6.88238 8.70776 6.88238 7.56584C6.8841 6.0351 7.49295 4.56754 8.57535 3.48514C9.65775 2.40274 11.1253 1.79389 12.656 1.79217Z" fill="#FC559B"/>
<path d="M11.2129 17.6697V20.5566C11.2137 20.8125 11.2828 21.0636 11.4131 21.2838C11.5434 21.5041 11.7302 21.6855 11.9541 21.8095C11.9432 21.8724 11.9367 21.9361 11.9346 22V24.8868C11.9346 25.2696 12.0867 25.6368 12.3574 25.9075C12.6281 26.1782 12.9952 26.3302 13.378 26.3302H23.4819C23.8647 26.3302 24.2319 26.1782 24.5026 25.9075C24.7733 25.6368 24.9253 25.2696 24.9253 24.8868V22C24.9246 21.7441 24.8555 21.493 24.7251 21.2727C24.5948 21.0525 24.4081 20.871 24.1842 20.7471C24.195 20.6841 24.2015 20.6205 24.2036 20.5566V17.6697C24.2036 17.2869 24.0516 16.9198 23.7809 16.6491C23.5102 16.3784 23.143 16.2263 22.7602 16.2263H12.6563C12.2735 16.2263 11.9064 16.3784 11.6357 16.6491C11.365 16.9198 11.2129 17.2869 11.2129 17.6697ZM23.4819 24.8868H13.378V22H14.8214V23.4434H16.2648V22H17.7083V23.4434H19.1517V22H20.5951V23.4434H22.0385V22H23.4819V24.8868ZM22.7602 20.5566H12.6563V17.6697H14.0997V19.1132H15.5431V17.6697H16.9866V19.1132H18.43V17.6697H19.8734V19.1132H21.3168V17.6697H22.7602V20.5566Z" fill="#FC559B"/>
<path d="M27.0904 17.6697V20.5565C27.0925 20.6204 27.099 20.6841 27.1099 20.7471C26.886 20.871 26.6992 21.0524 26.5689 21.2727C26.4386 21.493 26.3695 21.744 26.3687 22V24.8868C26.3687 25.2696 26.5208 25.6367 26.7914 25.9074C27.0621 26.1781 27.4293 26.3302 27.8121 26.3302H37.916C38.2988 26.3302 38.666 26.1781 38.9367 25.9074C39.2074 25.6367 39.3594 25.2696 39.3594 24.8868V22C39.3573 21.9361 39.3508 21.8724 39.3399 21.8094C39.5639 21.6855 39.7506 21.5041 39.8809 21.2838C40.0112 21.0635 40.0804 20.8125 40.0811 20.5565V17.6697C40.0811 17.2869 39.9291 16.9198 39.6584 16.6491C39.3877 16.3784 39.0205 16.2263 38.6377 16.2263V13.3395C39.0205 13.3395 39.3877 13.1874 39.6584 12.9167C39.9291 12.646 40.0811 12.2789 40.0811 11.896V9.00921C40.0811 8.62639 39.9291 8.25926 39.6584 7.98856C39.3877 7.71787 39.0205 7.5658 38.6377 7.5658H28.5338C28.151 7.5658 27.7838 7.71787 27.5132 7.98856C27.2425 8.25926 27.0904 8.62639 27.0904 9.00921V11.896C26.7076 11.896 26.3404 12.0481 26.0697 12.3188C25.799 12.5895 25.647 12.9566 25.647 13.3395V16.2263C25.647 16.6091 25.799 16.9763 26.0697 17.2469C26.3404 17.5176 26.7076 17.6697 27.0904 17.6697ZM31.4206 19.1131V17.6697H32.8641V19.1131H34.3075V17.6697H35.7509V19.1131H37.1943V17.6697H38.6377V20.5565H28.5338V17.6697H29.9772V19.1131H31.4206ZM37.916 24.8868H27.8121V22H29.2555V23.4434H30.6989V22H32.1423V23.4434H33.5858V22H35.0292V23.4434H36.4726V22H37.916V24.8868ZM28.5338 9.00921H29.9772V10.4526H31.4206V9.00921H32.8641V10.4526H34.3075V9.00921H35.7509V10.4526H37.1943V9.00921H38.6377V11.896H28.5338V9.00921ZM27.0904 13.3395H28.5338V14.7829H29.9772V13.3395H31.4206V14.7829H32.8641V13.3395H34.3075V14.7829H35.7509V13.3395H37.1943V16.2263H27.0904V13.3395Z" fill="#FC559B"/>
<path d="M14.877 6.98474H15.5776V7.53162H14.877V8.08533H15.5776V8.6322H14.877V10.3583H13.8481L12.7954 8.6322H11.8555V10.3583H10.8267V8.6322H10.1362V8.08533H10.8267V7.53162H10.1362V6.98474H10.8267V5.38171H11.8555L12.8296 6.98474H13.8516V5.38171H14.877V6.98474ZM13.4995 8.08533H13.8516V7.53162H13.1646L13.4995 8.08533ZM11.8555 8.08533H12.4639L12.1255 7.53162H11.8555V8.08533ZM13.8516 8.66296V8.6322H13.8311L13.8516 8.66296Z" fill="#FC559B"/>
</svg>
