<svg width="64" height="48" viewBox="0 0 64 48" fill="none" xmlns="http://www.w3.org/2000/svg">
<path d="M60.2313 3.75153H59.8948V2.74207C59.8948 2.27098 59.5584 1.8672 59.1546 1.7999C50.877 -0.420919 42.061 -0.622812 33.6488 1.39612L32.1009 1.7326C23.285 -0.42092 13.9306 -0.420919 5.11462 1.7999C4.71083 1.8672 4.37434 2.27098 4.37434 2.74207V3.75153H3.70137C1.68244 3.75153 0 5.43397 0 7.4529V43.3898C0 45.476 1.68244 47.1585 3.76866 47.1585H60.2313C62.3176 47.1585 64 45.476 64 43.3898V7.4529C63.9327 5.43397 62.2503 3.75153 60.2313 3.75153ZM34.1199 3.28045C41.9264 1.46341 50.1367 1.53071 57.8759 3.48234V40.4287C49.9348 38.4771 41.5899 38.4771 33.6488 40.3614L33.1104 40.496V3.54964L34.1199 3.28045ZM6.39327 3.54964C14.469 1.66531 23.0158 1.66531 31.1588 3.54964V40.496C27.1209 39.5538 22.9485 39.0828 18.776 39.0828C14.6036 39.0828 10.4311 39.5538 6.39327 40.496V3.54964ZM61.9138 43.3898C61.9138 44.332 61.1735 45.1395 60.164 45.1395H3.76866C2.8265 45.1395 2.01893 44.332 2.01893 43.3898V7.4529C2.01893 6.51073 2.7592 5.77046 3.70137 5.77046H4.37434V41.7747C4.37434 42.1112 4.50894 42.3803 4.77813 42.5822C4.98002 42.7841 5.31651 42.8514 5.653 42.7841C14.2671 40.6306 23.3523 40.6306 31.8991 42.7841C31.9664 42.7841 32.0336 42.7841 32.1009 42.7841C32.1009 42.7841 32.1009 42.7841 32.1682 42.7841C32.2355 42.7841 32.3028 42.7841 32.3701 42.7841L34.1199 42.3803C42.1956 40.496 50.6751 40.6306 58.6162 42.7841C58.6835 42.7841 58.8181 42.8514 58.8854 42.8514C59.0873 42.8514 59.2892 42.7841 59.4911 42.6495C59.7603 42.4476 59.8948 42.1784 59.8948 41.842V5.77046H60.2313C61.1735 5.77046 61.9138 6.51073 61.9138 7.4529V43.3898Z" fill="#FC559B"/>
<path d="M11.7772 11.7599C15.8824 10.4813 22.3429 10.5486 26.1116 11.9618C26.2462 12.0291 26.3808 12.0291 26.4481 12.0291C26.8519 12.0291 27.2557 11.7599 27.3903 11.3561C27.5922 10.8178 27.323 10.2794 26.7846 10.0775C22.5448 8.52965 15.6805 8.39506 11.1042 9.8756C10.5659 10.0102 10.2967 10.6159 10.4313 11.1543C10.6332 11.6253 11.2388 11.9618 11.7772 11.7599Z" fill="#FC559B"/>
<path d="M11.7772 21.1817C15.8824 19.903 22.3429 19.9703 26.1116 21.3836C26.2462 21.4509 26.3808 21.4509 26.4481 21.4509C26.8519 21.4509 27.2557 21.1817 27.3903 20.7779C27.5922 20.2395 27.323 19.7011 26.7846 19.4993C22.5448 17.9514 15.6805 17.8168 11.1042 19.2974C10.5659 19.432 10.2967 20.0376 10.4313 20.576C10.6332 21.0471 11.2388 21.3836 11.7772 21.1817Z" fill="#FC559B"/>
<path d="M11.7772 30.6033C15.8824 29.3247 22.3429 29.392 26.1116 30.8052C26.2462 30.8725 26.3808 30.8725 26.4481 30.8725C26.8519 30.8725 27.2557 30.6033 27.3903 30.1995C27.5922 29.6612 27.323 29.1228 26.7846 28.9209C22.5448 27.373 15.6805 27.2384 11.1042 28.719C10.5659 28.8536 10.2967 29.4593 10.4313 29.9976C10.6332 30.4687 11.2388 30.8052 11.7772 30.6033Z" fill="#FC559B"/>
<path d="M38.0233 11.7599C42.1285 10.4813 48.589 10.5486 52.3577 11.9618C52.4923 12.0291 52.6269 12.0291 52.6942 12.0291C53.098 12.0291 53.5018 11.7599 53.6364 11.3561C53.8382 10.8178 53.5691 10.2794 53.0307 10.0775C48.7909 8.52965 41.9266 8.39506 37.3503 9.8756C36.812 10.0102 36.5428 10.6159 36.6774 11.1543C36.8793 11.6253 37.4849 11.9618 38.0233 11.7599Z" fill="#FC559B"/>
<path d="M38.0233 21.1817C42.1285 19.903 48.589 19.9703 52.3577 21.3836C52.4923 21.4509 52.6269 21.4509 52.6942 21.4509C53.098 21.4509 53.5018 21.1817 53.6364 20.7779C53.8382 20.2395 53.5691 19.7011 53.0307 19.4993C48.7909 17.9514 41.9266 17.8168 37.3503 19.2974C36.812 19.432 36.5428 20.0376 36.6774 20.576C36.8793 21.0471 37.4849 21.3836 38.0233 21.1817Z" fill="#FC559B"/>
<path d="M38.0233 30.6033C42.1285 29.3247 48.589 29.392 52.3577 30.8052C52.4923 30.8725 52.6269 30.8725 52.6942 30.8725C53.098 30.8725 53.5018 30.6033 53.6364 30.1995C53.8382 29.6612 53.5691 29.1228 53.0307 28.9209C48.7909 27.373 41.9266 27.2384 37.3503 28.719C36.812 28.8536 36.5428 29.4593 36.6774 29.9976C36.8793 30.4687 37.4849 30.8052 38.0233 30.6033Z" fill="#FC559B"/>
</svg>
