<svg width="49" height="60" viewBox="0 0 49 60" fill="none" xmlns="http://www.w3.org/2000/svg">
<path d="M48.9054 53.02C48.7689 47.4222 48.6324 44.9343 48.0862 43.9668C47.4718 42.9992 46.6526 42.1699 45.9017 41.4788L45.4921 41.0642C43.9903 39.5438 42.6249 37.8161 41.2596 36.1575C40.2356 34.8444 39.1433 33.5313 37.9828 32.2874C37.4367 31.7345 36.8906 31.1125 36.0714 30.6979C35.3204 30.2832 34.433 30.0759 33.3407 30.0068C32.7263 29.9377 32.1802 29.9377 31.7706 29.9377L34.7743 7.68463C34.8426 7.06265 34.433 6.44067 33.8186 6.37157L28.8351 5.68048L28.5621 1.18841C28.5621 0.842861 28.3573 0.566426 28.1525 0.3591C27.9477 0.151773 27.4698 -0.0555529 27.1285 0.0135559L4.94195 4.09097C4.32756 4.22919 3.91796 4.78206 3.98622 5.47315C4.12276 6.09513 4.66889 6.50978 5.35155 6.44067L26.3093 2.57058L27.4698 20.4007L24.3296 5.0585C24.2613 4.78206 24.0565 4.50563 23.8517 4.2983C23.5786 4.16008 23.3056 4.09097 22.9642 4.16008L0.914243 8.72126C0.641178 8.79037 0.368112 8.9977 0.163314 9.20503C0.0267811 9.48146 -0.0414851 9.7579 0.0267812 10.1034L7.05821 44.7269C7.19474 45.2798 7.6726 45.6254 8.21873 45.6254C8.287 45.6254 8.35527 45.6254 8.42353 45.6254L22.0768 42.7919C23.1008 44.727 24.1248 47.0075 25.1488 49.2881C27.0602 53.4347 28.8351 57.3739 30.5418 59.5853C30.7466 59.8618 31.0879 60 31.4293 60C31.7023 60 31.9071 59.9309 32.1119 59.7236C32.5898 59.3089 32.7263 58.6178 32.3167 58.0649C30.7466 56.0608 28.9717 52.0525 27.1968 48.1824C25.2853 44.0359 23.5104 40.0967 21.8037 37.8852C21.3941 37.4014 20.9845 36.8485 20.848 36.3648C20.7797 36.0192 20.7797 35.6046 20.9845 35.5355C21.1893 35.3282 21.7355 35.3973 22.2816 35.6046C23.9882 36.2957 25.3536 37.747 26.7189 39.1982L26.992 39.4747C28.6986 41.3406 30.5418 43.1375 32.4533 44.7961C32.7263 45.0725 33.3407 45.5563 34.1599 45.5563C35.0474 45.4872 35.8666 44.7961 36.0031 43.7594C36.1396 43.0683 35.9348 42.5155 35.8666 42.0317C35.7983 41.6862 35.6618 41.3406 35.5935 40.9951C34.9108 38.1616 34.0234 34.7062 31.0879 33.946L31.361 32.0109C31.8389 32.0109 32.385 32.0109 33.0677 32.08C33.8186 32.1491 34.433 32.2874 34.9108 32.5638C35.3887 32.8402 35.7983 33.2549 36.2079 33.6695C37.3002 34.8444 38.3242 36.1575 39.3481 37.4705C40.7135 39.1982 42.1471 40.926 43.7855 42.5846L44.2633 42.9992C44.946 43.6903 45.6286 44.3123 46.0382 45.0034C46.3796 45.8327 46.4478 50.3939 46.5161 52.8818C46.5844 55.2315 46.5844 56.6137 46.7209 57.2356C46.8574 57.7885 47.3353 58.2032 47.8814 58.2032C47.9497 58.2032 48.018 58.2032 48.0862 58.2032C48.7006 58.0649 49.1102 57.443 48.9737 56.821C48.9737 56.4754 48.9737 54.6095 48.9054 53.02ZM5.55635 12.7296C5.01022 13.5589 4.25929 14.1809 3.37183 14.5955L2.6209 10.7945L6.44381 10.0343C6.37554 10.9327 6.10248 11.9003 5.55635 12.7296ZM9.10619 43.0683L8.35527 39.3365C9.31099 39.3365 10.2667 39.6129 11.0859 40.0967C11.9051 40.6495 12.5195 41.3406 12.9974 42.239L9.10619 43.0683ZM20.9163 28.0026C20.2336 28.8319 19.1413 29.4539 17.9808 29.6612L15.2502 30.2141C14.9088 30.2832 14.5675 30.2832 14.2262 30.2832C12.1099 30.2832 10.335 29.0393 9.92539 27.1042L9.78886 26.2749L12.0416 25.8602L12.2464 26.7587C12.4512 27.6571 13.6118 28.2099 14.8406 28.0026L17.5712 27.4498C18.1856 27.3115 18.8 26.966 19.1413 26.5513C19.3461 26.344 19.6192 25.8602 19.4827 25.3765V25.2383C19.4144 25.0309 19.0048 24.6854 18.0491 24.3399H14.9771H12.5195H12.1782L12.0416 24.2016C10.1985 23.6488 9.10619 22.7503 8.9014 21.5064V21.3682C8.6966 20.2624 9.03793 19.1567 9.78886 18.1892C10.4715 17.3599 11.5638 16.7379 12.7243 16.5306L13.2022 16.4615L12.8608 14.6646L15.1136 14.25L15.455 16.0468C17.9808 15.563 20.3019 16.9452 20.7797 19.0876L18.5269 19.5022C18.3221 18.6038 17.1616 18.051 15.9328 18.3274L13.2022 18.8803C12.5878 19.0185 11.9734 19.364 11.632 19.7787C11.4272 19.986 11.1542 20.4698 11.2907 20.9535V21.0917C11.2907 21.23 11.632 21.6446 12.656 21.921H14.431H18.4587L18.5952 21.9902C20.9845 22.6812 21.6672 23.8561 21.8037 24.7545V24.8927C21.9403 25.9294 21.6672 27.1042 20.9163 28.0026ZM20.4384 9.68879C19.6192 9.13592 19.0048 8.30661 18.5952 7.4082L22.3499 6.648L23.169 10.5872C22.2133 10.5181 21.2576 10.2417 20.4384 9.68879ZM33.4773 41.6862C33.5455 42.1008 33.682 42.4464 33.7503 42.7919C33.7503 42.861 33.7503 42.861 33.7503 42.9301C32.8629 42.1699 32.0437 41.3406 31.2245 40.5113C31.361 40.2349 31.4293 39.9584 31.361 39.6129L30.9514 37.3323L30.8831 36.4339C32.3167 37.125 32.9311 39.5438 33.4773 41.6862ZM30.0639 24.8236L28.9034 7.89196L32.2485 8.37572L30.0639 24.8236Z" fill="#775FBA"/>
<path d="M13.5 13.5L5.5 17L8.5 28.5L12 34H16H20.5L23.5 29.5V21.5L20.5 13.5H13.5Z" fill="#775FBA"/>
<path d="M20.622 21.321L22.4876 20.9514L22.7761 22.4075L20.9105 22.7771L21.2025 24.2514L23.0681 23.8818L23.3566 25.3379L21.491 25.7075L22.4015 30.3032L19.6623 30.8459L15.9488 26.8055L13.4462 27.3013L14.3567 31.897L11.6174 32.4397L10.707 27.8439L8.86866 28.2081L8.58019 26.7521L10.4185 26.3879L10.1264 24.9136L8.28811 25.2778L7.99964 23.8217L9.83793 23.4575L8.99235 19.1894L11.7316 18.6467L15.1708 22.401L17.8918 21.8619L17.0463 17.5938L19.7764 17.0529L20.622 21.321ZM17.535 24.978L18.4724 24.7923L18.1803 23.318L16.3511 23.6804L17.535 24.978ZM13.1577 25.8452L14.7776 25.5243L13.5846 24.2285L12.8656 24.3709L13.1577 25.8452ZM18.7771 26.3302L18.7609 26.2483L18.7063 26.2592L18.7771 26.3302Z" fill="#FFF2FA"/>
</svg>
