<svg width="66" height="61" viewBox="0 0 66 61" fill="none" xmlns="http://www.w3.org/2000/svg">
<path d="M7.87872 8.29291L11.3341 4.83753V20.8014C11.3341 21.5616 11.9561 22.2526 12.7163 22.2526C13.4764 22.2526 14.0984 21.6307 14.0984 20.8014V4.83753L17.5538 8.29291C17.8302 8.56934 18.1757 8.70755 18.5213 8.70755C18.8668 8.70755 19.2124 8.56934 19.4888 8.29291C20.0417 7.74005 20.0417 6.84165 19.4888 6.28879L13.6147 0.414645C13.0618 -0.138215 12.1634 -0.138215 11.6105 0.414645L5.87461 6.28879C5.32175 6.84165 5.32175 7.74005 5.87461 8.29291C6.42747 8.84577 7.32586 8.84577 7.87872 8.29291Z" fill="#40E1F7"/>
<path d="M50.7249 30.6146C49.8956 30.6146 49.0664 30.6837 48.3062 30.8219V19.4192C48.3062 15.4801 41.8792 13.476 35.5213 13.476C29.1634 13.476 22.7364 15.5492 22.7364 19.4192V28.1268C20.2485 26.7446 16.5167 26.0535 12.7849 26.0535C6.427 26.0535 0 28.1268 0 31.9968V44.5744C0 48.5135 6.427 50.5176 12.7849 50.5176C17.346 50.5176 21.9071 49.481 24.1185 47.4078C26.33 49.4119 30.9602 50.5176 35.4522 50.5176C35.8668 50.5176 36.2124 50.4485 36.627 50.4485C38.7002 56.2535 44.2288 60.4 50.6558 60.4C58.8796 60.4 65.5831 53.6965 65.5831 45.4727C65.5831 37.2489 58.9487 30.6146 50.7249 30.6146ZM22.7364 44.5744C22.7364 45.6801 18.9355 47.6842 12.7849 47.6842C6.63432 47.6842 2.83341 45.6801 2.83341 44.5744V42.1556C5.32128 43.5377 9.05309 44.2288 12.7849 44.2288C16.5167 44.2288 20.2485 43.5377 22.7364 42.1556V44.5744ZM22.7364 38.2856C22.7364 39.3913 18.9355 41.3954 12.7849 41.3954C6.63432 41.3954 2.83341 39.3913 2.83341 38.2856V35.8668C5.32128 37.249 9.05309 37.94 12.7849 37.94C16.5167 37.94 20.2485 37.249 22.7364 35.8668V38.2856ZM12.7849 35.1066C6.63432 35.1066 2.83341 33.1025 2.83341 31.9968C2.83341 30.8911 6.63432 28.8869 12.7849 28.8869C18.9355 28.8869 22.7364 30.8911 22.7364 31.9968C22.7364 33.1025 18.9355 35.1066 12.7849 35.1066ZM35.5213 16.2403C41.6718 16.2403 45.4728 18.2444 45.4728 19.3501C45.4728 20.4558 41.6718 22.4599 35.5213 22.4599C29.3707 22.4599 25.5698 20.4558 25.5698 19.3501C25.5698 18.2444 29.3016 16.2403 35.5213 16.2403ZM25.5698 23.2892C28.0577 24.6714 31.7895 25.3625 35.5213 25.3625C39.2531 25.3625 42.9849 24.6714 45.4728 23.2892V25.708C45.4728 26.8137 41.6718 28.8178 35.5213 28.8178C29.3707 28.8178 25.5698 26.8137 25.5698 25.708V23.2892ZM25.5698 29.578C28.0577 30.9602 31.7895 31.6512 35.5213 31.6512C39.2531 31.6512 42.9849 30.9602 45.4728 29.578V31.5821C43.676 32.2732 42.0174 33.3098 40.5661 34.6229C39.1149 34.9684 37.4563 35.1757 35.5213 35.1757C29.3707 35.1757 25.5698 33.1716 25.5698 32.0659V29.578ZM25.5698 35.8668C28.0577 37.249 31.7895 37.94 35.5213 37.94C36.3506 37.94 37.1799 37.8709 37.94 37.8018C37.249 38.9075 36.7652 40.0824 36.4197 41.3263C36.1432 41.3263 35.8668 41.3954 35.5213 41.3954C29.3707 41.3954 25.5698 39.3913 25.5698 38.2856V35.8668ZM35.5213 47.7533C29.3707 47.7533 25.5698 45.7492 25.5698 44.6435V42.2247C28.0577 43.6068 31.7895 44.2979 35.5213 44.2979C35.6595 44.2979 35.7977 44.2979 35.8668 44.2979C35.7977 44.7126 35.7977 45.1272 35.7977 45.5419C35.7977 46.302 35.8668 46.9931 36.005 47.7533C35.7977 47.6842 35.6595 47.7533 35.5213 47.7533ZM50.7249 57.5666C44.0906 57.5666 38.6311 52.1762 38.6311 45.4727C38.6311 38.7693 44.0215 33.3789 50.7249 33.3789C57.3593 33.3789 62.8188 38.7693 62.8188 45.4727C62.8188 52.1762 57.4284 57.5666 50.7249 57.5666Z" fill="#40E1F7"/>
<path d="M55.8203 43.8071H57.522V45.1353H55.8203V46.48H57.522V47.8081H55.8203V52H53.3218L50.7651 47.8081H48.4824V52H45.9839V47.8081H44.3071V46.48H45.9839V45.1353H44.3071V43.8071H45.9839V39.9141H48.4824L50.8481 43.8071H53.3301V39.9141H55.8203V43.8071ZM52.4751 46.48H53.3301V45.1353H51.6616L52.4751 46.48ZM48.4824 46.48H49.96L49.1382 45.1353H48.4824V46.48ZM53.3301 47.8828V47.8081H53.2803L53.3301 47.8828Z" fill="#40E1F7"/>
</svg>
