<svg width="23" height="24" viewBox="0 0 23 24" fill="none" xmlns="http://www.w3.org/2000/svg">
<path fill-rule="evenodd" clip-rule="evenodd" d="M6.16663 0.00057457C6.03671 0.0148395 5.91685 0.0772647 5.83068 0.175531C5.74451 0.273798 5.69828 0.400775 5.7011 0.531442V2.05871H2.92425C1.32187 2.05871 0.00039894 3.37716 0.00039894 4.98256V8.05343V8.11877C-0.00013298 8.13237 -0.00013298 8.146 0.00039894 8.1596V20.0837C0.00039894 21.6891 1.32118 23.0076 2.92425 23.0076H20.0835C21.6866 23.0076 22.9992 21.6891 22.9992 20.0837V8.19227C22.9996 8.18138 22.9996 8.17049 22.9992 8.1596C23.0003 8.14056 23.0003 8.12147 22.9992 8.10243V4.98256C22.9992 3.37716 21.6859 2.05871 20.0835 2.05871H17.2168V0.531442C17.2179 0.461423 17.205 0.391897 17.1787 0.326991C17.1524 0.262085 17.1133 0.203131 17.0638 0.153614C17.0143 0.104097 16.9553 0.0650348 16.8904 0.0387466C16.8255 0.0124585 16.756 -0.000528122 16.686 0.00057457C16.6173 0.00163892 16.5496 0.0162121 16.4866 0.0434683C16.4235 0.0707245 16.3665 0.110123 16.3187 0.15942C16.271 0.208717 16.2334 0.266957 16.2081 0.330788C16.1828 0.394619 16.1704 0.462798 16.1714 0.531442V2.05871H6.7465V0.531442C6.7476 0.461423 6.73463 0.391897 6.70834 0.326991C6.68205 0.262085 6.64299 0.203131 6.59347 0.153614C6.54395 0.104097 6.48499 0.0650348 6.42008 0.0387466C6.35518 0.0124585 6.28565 -0.000528122 6.21563 0.00057457C6.19931 -0.000191523 6.18296 -0.000191523 6.16663 0.00057457ZM1.0458 8.6823H21.9538V20.0837C21.9538 21.1201 21.114 21.9622 20.0835 21.9622H2.92425C1.89375 21.9622 1.0458 21.1201 1.0458 20.0837V8.6823Z" fill="#FC559B"/>
</svg>
