<svg width="117" height="117" viewBox="0 0 117 117" fill="none" xmlns="http://www.w3.org/2000/svg">
<circle cx="58.5" cy="58.5" r="58.5" fill="#C4C4C4"/>
<path d="M53.043 90.1126C53.0408 90.7044 53.0736 91.1012 53.1553 91.4846C53.4601 92.9143 54.5458 93.6697 58.4992 93.6706C62.4542 93.6697 63.5399 92.9143 63.8447 91.4846C63.9267 91.0999 63.9595 90.7017 63.957 90.1066C63.3157 88.167 62.9008 86.1664 62.7117 84.1094C61.2888 84.6274 59.8595 84.8997 58.4584 84.8997C57.0841 84.8997 55.6825 84.6351 54.2867 84.1315C54.0968 86.183 53.6826 88.1781 53.043 90.1126ZM47.0765 85.7786C47.3186 84.6191 47.4593 83.4278 47.4984 82.2026C40.0382 86.1959 29.2372 84.1341 23.7836 77.4927C22.6474 76.109 22.7587 74.086 24.04 72.8354C30.6605 66.3733 31.8422 62.3112 31.8422 49.4911C31.8422 35.5744 44.233 21.9534 58.5 21.9534C72.767 21.9534 85.1579 35.5744 85.1579 49.4911C85.1579 62.3112 86.3395 66.3733 92.96 72.8354C94.2413 74.086 94.3526 76.109 93.2164 77.4927C87.7628 84.1341 76.9619 86.1959 69.5018 82.2026C69.541 83.4276 69.6821 84.6189 69.9247 85.7788C76.1067 86.6826 81.047 89.5789 84.8606 94.0696C87.9213 97.6738 89.8804 101.655 91.7683 107.04C92.3985 108.838 91.4523 110.806 89.6548 111.436C87.8573 112.066 85.8892 111.12 85.2589 109.322C82.0095 100.054 77.9279 94.5534 70.5909 92.9228C69.5602 97.7582 65.5233 100.567 58.4992 100.569C51.4767 100.567 47.4398 97.7582 46.4042 92.9C39.0721 94.5534 34.9905 100.054 31.7411 109.322C31.1108 111.12 29.1427 112.066 27.3452 111.436C25.5477 110.806 24.6015 108.838 25.2317 107.04C27.1196 101.655 29.0787 97.6738 32.1394 94.0696C35.9533 89.5786 40.8939 86.6822 47.0765 85.7786ZM78.2676 51.1119C78.2625 50.5839 78.26 50.0438 78.26 49.4911C78.26 39.2462 68.8041 28.8516 58.5 28.8516C48.1959 28.8516 38.74 39.2462 38.74 49.4911C38.74 49.839 38.739 50.1819 38.737 50.5199C42.1014 49.5218 44.9603 47.5081 46.752 45.1947C45.5017 43.944 45.3937 41.9227 46.5517 40.5422C47.7758 39.0827 49.9512 38.892 51.4105 40.1162C53.7535 42.0817 56.7261 43.2199 63.646 45.1253C63.834 45.177 63.834 45.177 64.0224 45.2289C71.6507 47.3285 75.1156 48.6001 78.2676 51.1119ZM79.0681 61.8855C77.8155 67.4101 75.524 72.2664 72.6863 76.0765C76.3518 78.0773 81.8491 77.6171 85.6122 75.1364C81.9392 71.0051 80.0128 67.1649 79.0681 61.8855ZM44.3026 76.0825C41.473 72.2687 39.1866 67.4059 37.934 61.8737C36.99 67.1592 35.0635 71.002 31.3878 75.1364C35.1471 77.6146 40.6372 78.0764 44.3026 76.0825ZM52.6506 48.8176C50.5813 51.7136 47.5456 54.2284 43.9415 55.905C44.5496 62.7378 46.8534 68.355 50.3191 72.5181C53.1912 75.968 56.6526 78.0015 58.4584 78.0015C60.2876 78.0015 63.7258 76.0076 66.5947 72.6074C70.1124 68.4381 72.454 62.7721 73.062 55.8633C70.9378 54.4899 67.9633 53.4683 62.1921 51.8798C62.0037 51.828 62.0037 51.828 61.8149 51.776C57.8273 50.678 54.9536 49.7907 52.6506 48.8176Z" fill="white"/>
</svg>
