<svg width="64" height="59" viewBox="0 0 64 59" fill="none" xmlns="http://www.w3.org/2000/svg">
<path d="M63.5095 40.8862C63.2165 40.3125 62.802 39.7971 62.2898 39.3694C61.7776 38.9418 61.1778 38.6103 60.5246 38.394C59.8715 38.1778 59.1779 38.0809 58.4835 38.109C57.7892 38.1372 57.1078 38.2897 56.4783 38.5579L42.7559 44.3733C43.2032 43.6396 43.4323 42.8123 43.4206 41.9732C43.4089 41.1341 43.1567 40.3124 42.6891 39.5892C42.2215 38.8661 41.5547 38.2665 40.7545 37.85C39.9543 37.4334 39.0485 37.2142 38.1267 37.214H22.2406C20.8379 37.213 19.4639 37.575 18.2786 38.2578C17.0933 38.9406 16.1457 39.916 15.5462 41.0704H12.7089V38.1781C12.7089 37.9224 12.5973 37.6772 12.3987 37.4964C12.2001 37.3156 11.9307 37.214 11.6498 37.214H1.05907C0.778191 37.214 0.508811 37.3156 0.310196 37.4964C0.111581 37.6772 0 37.9224 0 38.1781V57.4599C0 57.7156 0.111581 57.9608 0.310196 58.1416C0.508811 58.3224 0.778191 58.424 1.05907 58.424H11.6498C11.9307 58.424 12.2001 58.3224 12.3987 58.1416C12.5973 57.9608 12.7089 57.7156 12.7089 57.4599V55.5317H40.3656C41.1383 55.5309 41.9016 55.3769 42.6023 55.0805L60.954 47.2936C62.2221 46.7482 63.2021 45.7688 63.6807 44.5688C64.1594 43.3687 64.0978 42.0452 63.5095 40.8862ZM10.5907 56.4958H2.11815V39.1422H10.5907V56.4958ZM60.058 45.5476L41.7074 53.3336C41.2868 53.5107 40.829 53.6028 40.3656 53.6035H12.7089V42.9985H16.2568C16.4767 42.9984 16.6911 42.936 16.8703 42.8199C17.0494 42.7038 17.1844 42.5398 17.2566 42.3507C17.6194 41.4115 18.2939 40.5982 19.1868 40.0233C20.0798 39.4485 21.1469 39.1406 22.2406 39.1422H38.1267C38.9693 39.1422 39.7775 39.4469 40.3733 39.9893C40.9692 40.5317 41.3039 41.2674 41.3039 42.0344C41.3039 42.8015 40.9692 43.5372 40.3733 44.0796C39.7775 44.622 38.9693 44.9267 38.1267 44.9267H28.595V46.8549H40.7479C41.5196 46.8541 42.2818 46.7001 42.9815 46.4037L57.3754 40.3039C58.1359 39.9799 59.0066 39.9442 59.7961 40.2045C60.5855 40.4649 61.2291 41 61.5852 41.6922C61.7801 42.0777 61.8812 42.497 61.8817 42.9214C61.8814 43.4713 61.7099 44.0098 61.3872 44.4746C61.0644 44.9394 60.6035 45.3115 60.058 45.5476Z" fill="#5A5A5A"/>
<path d="M18.0038 19.8603C20.0985 19.8603 22.1461 19.2949 23.8877 18.2355C25.6294 17.1762 26.9868 15.6705 27.7884 13.9088C28.59 12.1472 28.7997 10.2087 28.3911 8.33855C27.9824 6.4684 26.9738 4.75056 25.4926 3.40225C24.0115 2.05395 22.1244 1.13574 20.07 0.763743C18.0156 0.391746 15.8861 0.582668 13.9509 1.31237C12.0157 2.04206 10.3617 3.27776 9.19795 4.8632C8.03422 6.44864 7.41309 8.31261 7.41309 10.2194C7.41617 12.7755 8.53297 15.226 10.5185 17.0334C12.5039 18.8409 15.1959 19.8575 18.0038 19.8603ZM18.0038 2.50668C19.6796 2.50668 21.3176 2.95902 22.711 3.8065C24.1043 4.65399 25.1902 5.85855 25.8315 7.26787C26.4728 8.67719 26.6406 10.228 26.3136 11.7241C25.9867 13.2202 25.1798 14.5945 23.9949 15.6731C22.81 16.7518 21.3003 17.4863 19.6568 17.7839C18.0132 18.0815 16.3097 17.9288 14.7615 17.345C13.2133 16.7613 11.8901 15.7727 10.9591 14.5044C10.0281 13.236 9.53124 11.7448 9.53124 10.2194C9.53376 8.17456 10.4272 6.21414 12.0156 4.76822C13.604 3.3223 15.7575 2.50897 18.0038 2.50668Z" fill="#5A5A5A"/>
<path d="M15.8862 23.7166V27.573C15.8874 27.9149 15.9888 28.2502 16.18 28.5445C16.3712 28.8387 16.6453 29.0811 16.9739 29.2467C16.9579 29.3308 16.9484 29.4158 16.9453 29.5012V33.3575C16.9453 33.8689 17.1685 34.3594 17.5657 34.721C17.9629 35.0826 18.5017 35.2857 19.0635 35.2857H33.8905C34.4523 35.2857 34.991 35.0826 35.3883 34.721C35.7855 34.3594 36.0087 33.8689 36.0087 33.3575V29.5012C36.0075 29.1593 35.9061 28.8239 35.7149 28.5297C35.5236 28.2354 35.2496 27.993 34.921 27.8275C34.9369 27.7434 34.9465 27.6583 34.9496 27.573V23.7166C34.9496 23.2052 34.7264 22.7148 34.3292 22.3532C33.932 21.9916 33.3932 21.7885 32.8314 21.7885H18.0044C17.4426 21.7885 16.9039 21.9916 16.5066 22.3532C16.1094 22.7148 15.8862 23.2052 15.8862 23.7166ZM33.8905 33.3575H19.0635V29.5012H21.1816V31.4294H23.2998V29.5012H25.4179V31.4294H27.5361V29.5012H29.6542V31.4294H31.7724V29.5012H33.8905V33.3575ZM32.8314 27.573H18.0044V23.7166H20.1225V25.6448H22.2407V23.7166H24.3588V25.6448H26.477V23.7166H28.5951V25.6448H30.7133V23.7166H32.8314V27.573Z" fill="#5A5A5A"/>
<path d="M39.186 23.7165V27.5729C39.1891 27.6582 39.1986 27.7432 39.2146 27.8274C38.886 27.9929 38.6119 28.2353 38.4207 28.5296C38.2295 28.8238 38.1281 29.1592 38.1269 29.501V33.3574C38.1269 33.8688 38.3501 34.3592 38.7473 34.7208C39.1446 35.0824 39.6833 35.2856 40.2451 35.2856H55.0721C55.6339 35.2856 56.1727 35.0824 56.5699 34.7208C56.9671 34.3592 57.1903 33.8688 57.1903 33.3574V29.501C57.1872 29.4157 57.1777 29.3307 57.1617 29.2465C57.4903 29.081 57.7644 28.8386 57.9556 28.5444C58.1468 28.2501 58.2482 27.9147 58.2494 27.5729V23.7165C58.2494 23.2051 58.0262 22.7147 57.629 22.3531C57.2317 21.9915 56.693 21.7883 56.1312 21.7883V17.932C56.693 17.932 57.2317 17.7288 57.629 17.3672C58.0262 17.0056 58.2494 16.5152 58.2494 16.0038V12.1474C58.2494 11.636 58.0262 11.1456 57.629 10.784C57.2317 10.4224 56.693 10.2192 56.1312 10.2192H41.3042C40.7424 10.2192 40.2036 10.4224 39.8064 10.784C39.4092 11.1456 39.186 11.636 39.186 12.1474V16.0038C38.6243 16.0038 38.0855 16.2069 37.6883 16.5685C37.291 16.9301 37.0679 17.4206 37.0679 17.932V21.7883C37.0679 22.2997 37.291 22.7901 37.6883 23.1518C38.0855 23.5134 38.6243 23.7165 39.186 23.7165ZM45.5405 25.6447V23.7165H47.6586V25.6447H49.7768V23.7165H51.8949V25.6447H54.0131V23.7165H56.1312V27.5729H41.3042V23.7165H43.4223V25.6447H45.5405ZM55.0721 33.3574H40.2451V29.501H42.3632V31.4292H44.4814V29.501H46.5995V31.4292H48.7177V29.501H50.8358V31.4292H52.954V29.501H55.0721V33.3574ZM41.3042 12.1474H43.4223V14.0756H45.5405V12.1474H47.6586V14.0756H49.7768V12.1474H51.8949V14.0756H54.0131V12.1474H56.1312V16.0038H41.3042V12.1474ZM39.186 17.932H41.3042V19.8601H43.4223V17.932H45.5405V19.8601H47.6586V17.932H49.7768V19.8601H51.8949V17.932H54.0131V21.7883H39.186V17.932Z" fill="#5A5A5A"/>
</svg>
