<svg width="42" height="40" viewBox="0 0 42 40" fill="none" xmlns="http://www.w3.org/2000/svg">
<path d="M18.6321 34.0334C10.1348 34.0334 3.23074 27.1293 3.23074 18.6321C3.23074 10.1348 10.1348 3.23074 18.6321 3.23074C27.1293 3.23074 34.0334 10.1348 34.0334 18.6321C34.0334 19.827 33.9006 20.9334 33.6793 22.0398C33.8564 21.9956 34.0334 21.9956 34.2104 21.9956C35.1398 21.9956 36.0692 22.1283 36.9543 22.3939C37.2199 21.1989 37.3084 19.9155 37.3084 18.6321C37.3084 8.36451 28.9439 0 18.6763 0C8.40877 0 0 8.36451 0 18.6321C0 28.8996 8.36451 37.2641 18.6321 37.2641C21.1547 37.2641 23.5888 36.7773 25.7574 35.8479C25.2706 34.9185 24.9165 33.8564 24.7837 32.7057C22.925 33.5466 20.8449 34.0334 18.6321 34.0334Z" fill="#FC559B"/>
<path d="M34.2107 23.6331C29.8735 23.6331 26.333 27.1293 26.333 31.4665C26.333 35.8036 29.8293 39.2999 34.1664 39.2999C38.5036 39.2999 41.9999 35.8036 41.9999 31.4665C42.0441 27.1293 38.5479 23.6331 34.2107 23.6331ZM37.6185 29.9618L34.0337 34.2104C33.9009 34.3874 33.6796 34.4759 33.4583 34.4759C33.237 34.4759 33.0158 34.3874 32.883 34.2104L30.8472 31.7763C30.5816 31.4665 30.6259 30.9797 30.9357 30.6699C31.2455 30.4043 31.7323 30.4486 32.0421 30.7584L33.5026 32.4844L36.4678 28.9439C36.7333 28.6341 37.2201 28.5898 37.5742 28.8553C37.8397 29.1651 37.884 29.652 37.6185 29.9618Z" fill="#FC559B"/>
<path d="M24.2109 16.3431H26.1128V17.8275H24.2109V19.3304H26.1128V20.8148H24.2109V25.4999H21.4185L18.561 20.8148H16.0098V25.4999H13.2173V20.8148H11.3433V19.3304H13.2173V17.8275H11.3433V16.3431H13.2173V11.9921H16.0098L18.6538 16.3431H21.4277V11.9921H24.2109V16.3431ZM20.4722 19.3304H21.4277V17.8275H19.563L20.4722 19.3304ZM16.0098 19.3304H17.6611L16.7427 17.8275H16.0098V19.3304ZM21.4277 20.8983V20.8148H21.3721L21.4277 20.8983Z" fill="#FC559B"/>
</svg>
