<svg width="20" height="23" viewBox="0 0 20 23" fill="none" xmlns="http://www.w3.org/2000/svg">
<path d="M19.1469 20.6018H1.68943V6.10082C1.68943 5.63153 1.314 5.2561 0.844715 5.2561C0.375429 5.2561 0 5.63153 0 6.10082V21.4465C0 21.9158 0.375429 22.2912 0.844715 22.2912H19.1469C19.6161 22.2912 19.9916 21.9158 19.9916 21.4465C19.9916 20.9772 19.6161 20.6018 19.1469 20.6018Z" fill="#FC559B"/>
<path d="M11.4036 9.76121C11.427 10.2305 11.8259 10.559 12.2952 10.559L14.1724 10.4417L11.3332 13.6797L9.38565 12.53C9.05715 12.3188 8.61133 12.3657 8.35322 12.6708L3.98886 17.1994C3.66036 17.5279 3.68383 18.0676 4.01233 18.3961C4.17658 18.5603 4.38776 18.6307 4.59893 18.6307C4.83358 18.6307 5.04476 18.5369 5.20901 18.3726L9.10408 14.3133L11.0751 15.4865C11.427 15.6977 11.8729 15.6273 12.1544 15.3222L15.4864 11.5445L15.6037 13.4451C15.6272 13.8909 16.0026 14.2429 16.4484 14.2429C16.4719 14.2429 16.4953 14.2429 16.4953 14.2429C16.9646 14.2194 17.3166 13.8205 17.2931 13.3512L17.035 9.40924C17.0115 8.93996 16.5892 8.588 16.1434 8.61146L12.2014 8.86957C11.7321 8.86957 11.3801 9.29192 11.4036 9.76121Z" fill="#FC559B"/>
<circle cx="7.5" cy="4.5" r="4.5" fill="#FC559B"/>
<path d="M8.89062 6.55469H8.1582L6.73242 4.21582V6.55469H6V3H6.73242L8.16064 5.34375V3H8.89062V6.55469Z" fill="white"/>
<rect x="5" y="4" width="5" height="0.5" fill="white"/>
<rect x="5" y="5" width="5" height="0.5" fill="white"/>
</svg>
