<svg width="146" height="26" viewBox="0 0 146 26" fill="none" xmlns="http://www.w3.org/2000/svg">
<path fill-rule="evenodd" clip-rule="evenodd" d="M13.0435 0C9.50109 0 9.05691 0.0149638 7.66568 0.0782299C6.27736 0.141341 5.32916 0.361118 4.4995 0.682505C3.64178 1.01468 2.91438 1.45919 2.1892 2.1819C1.46408 2.90466 1.01807 3.62964 0.684788 4.4845C0.362326 5.3114 0.141822 6.25642 0.0784998 7.64012C0.0150221 9.0267 0 9.46941 0 13C0 16.5306 0.0150221 16.9733 0.0784998 18.3599C0.141822 19.7436 0.362326 20.6886 0.684788 21.5155C1.01807 22.3704 1.46408 23.0953 2.1892 23.8181C2.91438 24.5408 3.64178 24.9853 4.4995 25.3175C5.32916 25.6389 6.27736 25.8587 7.66568 25.9218C9.05691 25.985 9.50109 26 13.0435 26C16.5859 26 17.03 25.985 18.4213 25.9218C19.8096 25.8587 20.7578 25.6389 21.5874 25.3175C22.4452 24.9853 23.1726 24.5408 23.8977 23.8181C24.6229 23.0953 25.0689 22.3704 25.4022 21.5155C25.7246 20.6886 25.9451 19.7436 26.0085 18.3599C26.0719 16.9733 26.087 16.5306 26.087 13C26.087 9.46941 26.0719 9.0267 26.0085 7.64012C25.9451 6.25642 25.7246 5.3114 25.4022 4.4845C25.0689 3.62964 24.6229 2.90466 23.8977 2.1819C23.1726 1.45919 22.4452 1.01468 21.5874 0.682505C20.7578 0.361118 19.8096 0.141341 18.4213 0.0782299C17.03 0.0149638 16.5859 0 13.0435 0ZM13.0435 2.34233C16.5262 2.34233 16.9388 2.3556 18.3142 2.41814C19.5859 2.47594 20.2765 2.68772 20.7362 2.86575C21.345 3.10158 21.7795 3.38329 22.2359 3.83822C22.6924 4.29311 22.975 4.72617 23.2116 5.33297C23.3902 5.79106 23.6027 6.4794 23.6607 7.74688C23.7235 9.11768 23.7368 9.52886 23.7368 13C23.7368 16.4711 23.7235 16.8823 23.6607 18.2531C23.6027 19.5206 23.3902 20.2089 23.2116 20.667C22.975 21.2738 22.6924 21.7069 22.2359 22.1618C21.7795 22.6167 21.345 22.8984 20.7362 23.1342C20.2765 23.3123 19.5859 23.5241 18.3142 23.5819C16.939 23.6444 16.5265 23.6577 13.0435 23.6577C9.56048 23.6577 9.14802 23.6444 7.77279 23.5819C6.50107 23.5241 5.81043 23.3123 5.35081 23.1342C4.74197 22.8984 4.30746 22.6167 3.85105 22.1618C3.39465 21.7069 3.11195 21.2738 2.87534 20.667C2.69671 20.2089 2.48422 19.5206 2.42623 18.2531C2.36348 16.8823 2.35017 16.4711 2.35017 13C2.35017 9.52886 2.36348 9.11768 2.42623 7.74688C2.48422 6.4794 2.69671 5.79106 2.87534 5.33297C3.11195 4.72617 3.39459 4.29311 3.85105 3.83822C4.30746 3.38329 4.74197 3.10158 5.35081 2.86575C5.81043 2.68772 6.50107 2.47594 7.77279 2.41814C9.14818 2.3556 9.56073 2.34233 13.0435 2.34233ZM13.0435 6.32433C9.34426 6.32433 6.34548 9.3131 6.34548 13C6.34548 16.6869 9.34426 19.6757 13.0435 19.6757C16.7427 19.6757 19.7415 16.6869 19.7415 13C19.7415 9.3131 16.7427 6.32433 13.0435 6.32433ZM13.0435 17.3333C10.6422 17.3333 8.69565 15.3932 8.69565 13C8.69565 10.6068 10.6422 8.66667 13.0435 8.66667C15.4447 8.66667 17.3913 10.6068 17.3913 13C17.3913 15.3932 15.4447 17.3333 13.0435 17.3333ZM21.5713 6.06058C21.5713 6.92216 20.8705 7.62056 20.0061 7.62056C19.1417 7.62056 18.4409 6.92216 18.4409 6.06058C18.4409 5.19901 19.1417 4.50055 20.0061 4.50055C20.8705 4.50055 21.5713 5.19901 21.5713 6.06058Z" fill="#525252"/>
<path fill-rule="evenodd" clip-rule="evenodd" d="M105.087 6.56495C104.128 7 103.096 7.29421 102.014 7.42567C103.119 6.74961 103.968 5.67763 104.367 4.40063C103.332 5.02661 102.188 5.482 100.967 5.72613C99.9927 4.66353 98.6008 4 97.0604 4C94.1068 4 91.7104 6.44914 91.7104 9.46948C91.7104 9.89828 91.7564 10.3146 91.8482 10.7152C87.4001 10.4867 83.4573 8.31142 80.816 4.99843C80.3551 5.80907 80.0917 6.74961 80.0917 7.75118C80.0917 9.64789 81.0365 11.3224 82.4728 12.3036C81.5969 12.277 80.7701 12.0282 80.0473 11.6213V11.6886C80.0473 14.3396 81.8924 16.5509 84.3423 17.0516C83.8937 17.18 83.4206 17.2441 82.9321 17.2441C82.5876 17.2441 82.2507 17.2113 81.9246 17.1471C82.606 19.3192 84.5812 20.9014 86.9239 20.9437C85.0926 22.4116 82.7836 23.2864 80.277 23.2864C79.8452 23.2864 79.418 23.2613 79 23.2113C81.3688 24.7606 84.1831 25.6667 87.2041 25.6667C97.0497 25.6667 102.432 17.3333 102.432 10.1048C102.432 9.86698 102.427 9.62911 102.418 9.39593C103.464 8.62441 104.372 7.66198 105.087 6.56495Z" fill="#525252"/>
<path fill-rule="evenodd" clip-rule="evenodd" d="M146 26H139.591V16.8599C139.591 14.4676 138.588 12.8343 136.383 12.8343C134.697 12.8343 133.759 13.9365 133.323 14.9987C133.159 15.3799 133.185 15.911 133.185 16.4421V26H126.835C126.835 26 126.917 9.80932 126.835 8.33759H133.185V11.1096C133.56 9.89756 135.589 8.16777 138.827 8.16777C142.844 8.16777 146 10.7083 146 16.179V26ZM120.414 6.12832H120.373C118.327 6.12832 117 4.77812 117 3.06665C117 1.32189 118.366 0 120.453 0C122.538 0 123.82 1.31857 123.861 3.06167C123.861 4.77314 122.538 6.12832 120.414 6.12832ZM117.731 8.33759H123.384V26H117.731V8.33759Z" fill="#525252"/>
<path d="M41.4423 7.69377C41.4804 7.33942 41.3441 6.98507 41.0767 6.7452L38.371 3.48519V3H46.7775L53.2692 17.2394L58.9863 3H67V3.48519L64.6815 5.70396C64.4797 5.8566 64.3815 6.10737 64.4251 6.35269V22.6473C64.3815 22.8926 64.4851 23.1434 64.6815 23.296L66.94 25.5148V26H55.5713V25.5148L57.9116 23.2415C58.1407 23.0126 58.1407 22.9417 58.1407 22.5928V9.4219L51.6326 25.9509H50.7543L43.1716 9.4219V20.4994C43.1061 20.9628 43.2643 21.4316 43.5916 21.7696L46.6356 25.4603V25.9455H38V25.4603L41.044 21.7696C41.3713 21.4316 41.5132 20.9628 41.4368 20.4994V7.69377H41.4423Z" fill="#525252"/>
</svg>
