<svg width="435" height="338" viewBox="0 0 435 338" fill="none" xmlns="http://www.w3.org/2000/svg">
<g clip-path="url(#clip0)">
<path d="M322.283 193.098L235.896 85.1096C231.974 88.6981 227.141 91.1392 221.925 92.1664C205.662 95.3704 189.779 84.2607 186.451 67.3521C184.097 55.3997 188.653 43.7556 197.267 36.8209L167.811 0L0 143.469L154.472 336.567L322.283 193.098Z" fill="#F2F2F2"/>
<path d="M36.8363 337.551H435" stroke="#3F3D56" stroke-width="2" stroke-miterlimit="10"/>
<path d="M277.741 32.1472C281.395 32.1472 284.357 29.184 284.357 25.5288C284.357 21.8735 281.395 18.9104 277.741 18.9104C274.087 18.9104 271.125 21.8735 271.125 25.5288C271.125 29.184 274.087 32.1472 277.741 32.1472Z" stroke="#FC559B" stroke-width="2" stroke-miterlimit="10"/>
<path d="M365.176 224.569C368.83 224.569 371.792 221.606 371.792 217.95C371.792 214.295 368.83 211.332 365.176 211.332C361.522 211.332 358.56 214.295 358.56 217.95C358.56 221.606 361.522 224.569 365.176 224.569Z" stroke="#FC559B" stroke-width="2" stroke-miterlimit="10"/>
<path d="M76.537 48.743C80.191 48.743 83.1532 45.7798 83.1532 42.1246C83.1532 38.4694 80.191 35.5062 76.537 35.5062C72.883 35.5062 69.9209 38.4694 69.9209 42.1246C69.9209 45.7798 72.883 48.743 76.537 48.743Z" stroke="#FC559B" stroke-width="2" stroke-miterlimit="10"/>
<path d="M214.944 87.0358C228.394 87.0358 239.298 76.1285 239.298 62.6736C239.298 49.2187 228.394 38.3113 214.944 38.3113C201.494 38.3113 190.59 49.2187 190.59 62.6736C190.59 76.1285 201.494 87.0358 214.944 87.0358Z" fill="#F2F2F2"/>
<path d="M70.3441 49.0606H178.232C183.438 49.0606 188.489 50.8325 192.555 54.085C196.621 57.3375 199.46 61.877 200.605 66.9574L255.119 308.838C255.713 311.476 255.724 314.213 255.149 316.855C254.575 319.498 253.43 321.983 251.794 324.136C250.158 326.289 248.071 328.059 245.679 329.32C243.287 330.581 240.649 331.303 237.948 331.436L127.039 336.902C121.1 337.195 115.258 335.316 110.602 331.617C105.946 327.917 102.795 322.649 101.737 316.796L70.8132 145.784L68.5127 146.441L62.5958 114.028L64.9639 113.436L56.3321 65.7001C55.9624 63.6555 56.0481 61.5545 56.5832 59.5468C57.1183 57.5391 58.0895 55.6743 59.4277 54.0852C60.7659 52.4961 62.438 51.2218 64.3249 50.3533C66.2119 49.4848 68.2671 49.0434 70.3441 49.0606Z" fill="#3F3D56"/>
<path d="M164.029 54.2749H176.622C180.239 54.2749 183.747 55.5123 186.564 57.7815C189.381 60.0508 191.337 63.2155 192.108 66.7503L244.433 306.657C244.735 308.039 244.734 309.469 244.433 310.85C244.131 312.231 243.534 313.53 242.684 314.66C241.835 315.789 240.751 316.722 239.508 317.394C238.264 318.067 236.891 318.462 235.48 318.555L124.93 325.803C121.811 326.007 118.726 325.056 116.264 323.13C113.802 321.204 112.134 318.439 111.58 315.362L66.9305 67.3947C66.6415 65.7897 66.7081 64.1409 67.1257 62.5645C67.5433 60.9881 68.3016 59.5227 69.3472 58.2715C70.3928 57.0203 71.7002 56.0139 73.177 55.3234C74.6539 54.6328 76.2642 54.2749 77.8944 54.2749H89.8416C90.9979 54.2749 92.122 54.6562 93.0398 55.3599C93.9576 56.0635 94.6179 57.0501 94.9185 58.1671C95.1839 59.1531 95.7668 60.0241 96.5771 60.6453C97.3873 61.2665 98.3797 61.6031 99.4005 61.6031H156.118C158.117 61.6031 160.042 60.8483 161.509 59.4897C162.975 58.131 163.875 56.2687 164.029 54.2749L164.029 54.2749Z" fill="#FC559B"/>
<path d="M199.248 116.283H84.8546V116.846H199.248V116.283Z" fill="#2F2E41"/>
<path d="M203.757 134.603H88.2357V135.167H203.757V134.603Z" fill="#2F2E41"/>
<path d="M92.0785 115.39L94.6777 111.923L94.2271 111.585L91.9807 114.581L83.3242 107.496L82.9678 107.933L92.0785 115.39Z" fill="#2F2E41"/>
<path d="M107.012 197.128L109.611 193.661L109.161 193.323L106.914 196.319L98.2572 189.234L97.9008 189.671L107.012 197.128Z" fill="#2F2E41"/>
<path d="M216.43 197.175L96.6825 199.712L96.6944 200.275L216.442 197.739L216.43 197.175Z" fill="#2F2E41"/>
<path d="M220.092 213.804L98.0907 216.623L98.1037 217.187L220.105 214.368L220.092 213.804Z" fill="#2F2E41"/>
<path opacity="0.1" d="M145.292 261.86C145.292 268.962 148.112 275.772 153.132 280.794C158.151 285.815 164.96 288.637 172.059 288.637C179.158 288.637 185.966 285.815 190.986 280.794C196.006 275.772 198.826 268.962 198.826 261.86C198.826 261.525 198.82 261.192 198.806 260.86C198.544 253.85 195.543 247.223 190.447 242.404C185.352 237.584 178.569 234.958 171.558 235.089C164.547 235.22 157.867 238.098 152.955 243.105C148.043 248.111 145.292 254.846 145.292 261.86H145.292Z" fill="black"/>
<path opacity="0.1" d="M147.828 272.289C147.828 272.624 147.833 272.957 147.847 273.29C150.444 278.791 154.836 283.245 160.3 285.916C165.764 288.588 171.975 289.319 177.91 287.988C183.845 286.658 189.15 283.345 192.952 278.596C196.753 273.847 198.825 267.944 198.826 261.86C198.826 261.525 198.82 261.192 198.806 260.86C196.21 255.358 191.818 250.905 186.353 248.233C180.889 245.561 174.678 244.83 168.743 246.161C162.809 247.492 157.504 250.804 153.702 255.553C149.9 260.302 147.828 266.205 147.828 272.289H147.828Z" fill="black"/>
<path d="M310.708 121.874C319.821 121.874 327.209 114.484 327.209 105.368C327.209 96.2524 319.821 88.8624 310.708 88.8624C301.595 88.8624 294.208 96.2524 294.208 105.368C294.208 114.484 301.595 121.874 310.708 121.874Z" fill="#2F2E41"/>
<path d="M328.509 312.209L331.648 325.665H324.025L320.887 310.415L328.509 312.209Z" fill="#9F616A"/>
<path d="M291.742 312.209V324.768L284.119 325.665V312.209H291.742Z" fill="#9F616A"/>
<path d="M330.751 169.575C330.751 169.575 329.854 188.862 328.958 190.208C328.061 191.553 319.99 210.84 319.99 210.84L315.954 198.281C315.954 198.281 322.232 187.965 321.335 182.134C320.438 176.303 321.003 169.128 321.003 169.128L330.751 169.575Z" fill="#9F616A"/>
<path d="M305.193 122.927C312.127 122.927 317.748 117.304 317.748 110.368C317.748 103.432 312.127 97.8094 305.193 97.8094C298.259 97.8094 292.639 103.432 292.639 110.368C292.639 117.304 298.259 122.927 305.193 122.927Z" fill="#9F616A"/>
<path d="M315.506 111.714C315.506 111.714 315.058 129.655 318.196 132.347C321.335 135.038 300.261 132.795 300.261 132.795C300.261 132.795 304.745 120.236 301.158 117.545C297.571 114.854 315.506 111.714 315.506 111.714Z" fill="#9F616A"/>
<path d="M298.916 131.898C298.916 131.898 301.606 126.964 305.193 127.413C308.78 127.861 320.438 128.758 320.887 129.655C321.335 130.552 322.68 133.692 323.577 134.589C324.474 135.486 331.199 136.832 331.648 142.214C332.096 147.597 315.506 180.34 315.506 180.34C315.506 180.34 317.748 187.965 317.3 189.759C316.851 191.553 319.542 196.936 319.093 199.178C318.645 201.421 325.819 214.877 322.232 232.37V260.628C322.232 260.628 334.338 309.518 330.751 313.106C327.164 316.695 315.058 314.452 312.816 313.106C310.574 311.761 301.158 244.032 301.158 244.032L296.674 221.157L296.226 271.392C296.226 271.392 297.122 313.555 293.984 314.9C290.845 316.246 278.739 316.695 277.842 314.003C277.143 311.904 273.716 256.058 272.241 231.578C271.73 223.128 272.395 214.648 274.215 206.381C276.082 197.914 278.791 187.966 281.877 183.928C287.706 176.303 291.293 152.082 291.293 152.082L283.671 138.178C283.671 138.178 288.155 133.692 290.845 133.692C293.535 133.692 298.916 131.898 298.916 131.898Z" fill="#2F2E41"/>
<path d="M328.958 139.075L331.322 140.685C331.322 140.685 332.993 169.575 331.648 171.369C330.303 173.163 320.951 172.288 320.246 170.707C319.541 169.126 328.958 139.075 328.958 139.075Z" fill="#2F2E41"/>
<path d="M288.972 165.342C290.285 174.451 291.435 182.559 284.724 189.894C277.98 197.317 270.373 203.909 262.066 209.527C261.243 211.708 249.159 227.725 248.544 221.336C247.929 214.947 252.104 209.939 258.037 204.536C263.97 199.133 272.27 187.411 276.953 180.978C281.636 174.546 279.708 170.535 279.545 165.163C279.383 159.79 287.131 165.407 288.972 165.342Z" fill="#9F616A"/>
<path d="M284.119 317.502C284.119 317.502 283.671 322.526 282.326 323.871C280.981 325.217 277.393 327.011 277.842 331.945C278.29 336.879 281.205 337.103 281.205 337.103L280.981 335.982L282.326 336.43L282.55 337.103H295.105C295.105 337.103 295.329 332.393 294.88 330.151C294.432 327.908 294.432 317.143 293.087 317.592C291.742 318.04 288.155 318.489 287.258 320.283C286.361 322.077 283.671 321.448 284.119 317.502Z" fill="#2F2E41"/>
<path d="M329.854 317.502C329.854 317.502 330.303 322.526 331.648 323.871C332.993 325.217 336.58 327.011 336.132 331.945C335.683 336.879 332.769 337.103 332.769 337.103L332.993 335.982L331.648 336.43L331.424 337.103H318.869C318.869 337.103 318.645 332.393 319.093 330.151C319.541 327.908 319.541 317.143 320.887 317.592C322.232 318.04 325.819 318.489 326.716 320.283C327.612 322.077 330.303 321.448 329.854 317.502Z" fill="#2F2E41"/>
<path d="M289.948 136.832L283.671 138.178C283.671 138.178 283.671 148.045 281.877 152.082C280.084 156.119 276.945 165.538 278.29 165.987C279.635 166.435 292.19 172.715 293.087 169.126C293.984 165.538 296.226 136.832 289.948 136.832Z" fill="#2F2E41"/>
<path d="M328.584 100.142C337.697 100.142 345.084 92.7515 345.084 83.6355C345.084 74.5195 337.697 67.1295 328.584 67.1295C319.471 67.1295 312.083 74.5195 312.083 83.6355C312.083 92.7515 319.471 100.142 328.584 100.142Z" fill="#2F2E41"/>
<path d="M342.816 97.3036C340.681 98.8477 338.206 99.8577 335.6 100.249C332.994 100.64 330.333 100.402 327.838 99.5533C325.343 98.7048 323.088 97.2708 321.261 95.3716C319.433 93.4723 318.087 91.1628 317.335 88.6365C317.62 90.9005 318.371 93.0809 319.54 95.04C320.709 96.9992 322.272 98.6944 324.13 100.019C325.987 101.343 328.099 102.268 330.332 102.735C332.565 103.202 334.87 103.2 337.102 102.731C339.335 102.261 341.445 101.334 343.301 100.007C345.157 98.6809 346.718 96.9837 347.885 95.0232C349.052 93.0627 349.8 90.8814 350.082 88.6171C350.364 86.3527 350.174 84.0545 349.523 81.8675C349.893 84.8057 349.465 87.7893 348.285 90.5052C347.105 93.2212 345.216 95.5694 342.816 97.3036Z" fill="#2F2E41"/>
<path d="M315.108 120.224C321.791 120.224 327.209 114.805 327.209 108.119C327.209 101.434 321.791 96.015 315.108 96.015C308.426 96.015 303.008 101.434 303.008 108.119C303.008 114.805 308.426 120.224 315.108 120.224Z" fill="#2F2E41"/>
<path d="M304.933 111.971C310.857 111.971 315.658 108.214 315.658 103.58C315.658 98.9463 310.857 95.1897 304.933 95.1897C299.01 95.1897 294.208 98.9463 294.208 103.58C294.208 108.214 299.01 111.971 304.933 111.971Z" fill="#2F2E41"/>
<path d="M302.072 115.781C303.197 115.781 304.108 114.168 304.108 112.178C304.108 110.188 303.197 108.575 302.072 108.575C300.948 108.575 300.037 110.188 300.037 112.178C300.037 114.168 300.948 115.781 302.072 115.781Z" fill="#A0616A"/>
</g>
<defs>
<clipPath id="clip0">
<rect width="435" height="338" fill="white"/>
</clipPath>
</defs>
</svg>
