<svg width="176" height="168" viewBox="0 0 176 168" fill="none" xmlns="http://www.w3.org/2000/svg">
<g clip-path="url(#clip0)">
<path d="M92.0184 168C123.994 168 149.916 163.81 149.916 158.642C149.916 153.473 123.994 149.283 92.0184 149.283C60.0426 149.283 34.1211 153.473 34.1211 158.642C34.1211 163.81 60.0426 168 92.0184 168Z" fill="#F2F2F2"/>
<path d="M128.395 125.514C129.015 125.753 129.678 125.837 130.333 125.757C130.989 125.677 131.617 125.437 132.17 125.055C132.723 124.672 133.185 124.159 133.519 123.554C133.854 122.949 134.052 122.27 134.097 121.571C134.143 120.871 134.035 120.169 133.783 119.521C133.53 118.873 133.139 118.297 132.641 117.837C132.143 117.377 131.552 117.046 130.913 116.871C130.275 116.696 129.607 116.68 128.962 116.827L129.068 119.158L128.032 117.16C127.014 117.669 126.228 118.586 125.846 119.711C125.71 120.105 125.628 120.518 125.601 120.937C125.536 121.919 125.773 122.897 126.277 123.723C126.781 124.549 127.525 125.178 128.395 125.514Z" fill="#57B894"/>
<path d="M133.525 152.554C133.159 150.571 134.745 148.813 136.312 147.671C137.878 146.528 139.709 145.406 140.244 143.467C141.012 140.68 138.723 138.128 136.942 135.927C135.621 134.294 134.486 132.5 133.562 130.583C133.191 129.814 132.851 129.01 132.753 128.153C132.613 126.917 132.986 125.688 133.362 124.51C134.614 120.585 135.952 116.693 137.377 112.834" stroke="#3F3D56" stroke-miterlimit="10"/>
<path d="M128.57 124.914C129.19 125.153 129.854 125.236 130.509 125.157C131.164 125.077 131.793 124.837 132.346 124.454C132.898 124.072 133.36 123.558 133.695 122.954C134.029 122.349 134.227 121.67 134.273 120.97C134.318 120.27 134.211 119.569 133.958 118.921C133.705 118.273 133.315 117.696 132.817 117.236C132.319 116.776 131.727 116.446 131.089 116.271C130.45 116.095 129.782 116.08 129.137 116.226L129.244 118.558L128.207 116.56C127.189 117.069 126.403 117.986 126.021 119.111C125.886 119.505 125.803 119.918 125.776 120.336C125.711 121.319 125.948 122.297 126.452 123.123C126.956 123.949 127.7 124.577 128.57 124.914Z" stroke="#3F3D56" stroke-miterlimit="10"/>
<path d="M133.005 112.029C133.248 111.315 133.656 110.677 134.192 110.175C134.727 109.674 135.373 109.323 136.07 109.156L136.42 111.373L137.07 109.045C137.973 109.059 138.847 109.378 139.568 109.956C140.289 110.533 140.819 111.34 141.081 112.259C141.343 113.177 141.324 114.161 141.026 115.067C140.728 115.974 140.168 116.756 139.425 117.301C138.682 117.847 137.795 118.127 136.893 118.101C135.991 118.075 135.12 117.745 134.405 117.158C133.691 116.572 133.17 115.759 132.918 114.837C132.667 113.914 132.697 112.931 133.005 112.029Z" fill="#57B894"/>
<path d="M133.239 111.228C133.482 110.514 133.89 109.877 134.426 109.375C134.961 108.873 135.607 108.523 136.303 108.356L136.654 110.572L137.304 108.245C138.206 108.259 139.081 108.578 139.802 109.155C140.523 109.733 141.053 110.54 141.315 111.458C141.577 112.377 141.558 113.361 141.26 114.267C140.962 115.173 140.401 115.956 139.659 116.501C138.916 117.046 138.029 117.326 137.127 117.301C136.225 117.275 135.353 116.945 134.639 116.358C133.925 115.771 133.404 114.958 133.152 114.036C132.901 113.114 132.931 112.131 133.239 111.228H133.239Z" stroke="#3F3D56" stroke-miterlimit="10"/>
<path d="M136.195 135.972C137.178 136.352 138.257 136.333 139.228 135.92C140.199 135.507 140.993 134.728 141.458 133.732C141.924 132.736 142.029 131.593 141.753 130.52C141.477 129.447 140.84 128.52 139.963 127.915L139.464 129.704L139.109 127.461C139.106 127.459 139.102 127.458 139.099 127.457C138.573 127.253 138.015 127.162 137.456 127.189C136.897 127.215 136.349 127.358 135.842 127.61C135.335 127.862 134.88 128.218 134.503 128.657C134.125 129.096 133.833 129.61 133.642 130.169C133.451 130.728 133.366 131.322 133.391 131.917C133.416 132.511 133.551 133.094 133.788 133.633C134.025 134.172 134.36 134.656 134.773 135.058C135.186 135.459 135.669 135.77 136.195 135.972H136.195Z" fill="#57B894"/>
<path d="M136.397 135.162C137.38 135.541 138.46 135.522 139.431 135.109C140.401 134.696 141.195 133.917 141.661 132.921C142.127 131.926 142.232 130.782 141.956 129.71C141.68 128.637 141.043 127.709 140.166 127.104L139.666 128.893L139.312 126.65C139.309 126.649 139.305 126.647 139.301 126.646C138.776 126.443 138.217 126.352 137.659 126.378C137.1 126.404 136.551 126.547 136.044 126.799C135.538 127.051 135.082 127.407 134.705 127.846C134.327 128.285 134.035 128.799 133.844 129.358C133.653 129.918 133.568 130.512 133.593 131.106C133.618 131.7 133.753 132.284 133.99 132.823C134.227 133.362 134.562 133.846 134.975 134.247C135.388 134.648 135.871 134.959 136.397 135.162V135.162Z" stroke="#3F3D56" stroke-miterlimit="10"/>
<path d="M131.762 143.494C131.931 144.517 132.426 145.447 133.163 146.129C133.9 146.81 134.835 147.2 135.81 147.235C136.786 147.27 137.743 146.947 138.522 146.321C139.3 145.694 139.853 144.801 140.086 143.793C140.319 142.784 140.219 141.721 139.803 140.781C139.387 139.842 138.68 139.083 137.8 138.632C136.921 138.182 135.922 138.066 134.972 138.306C134.022 138.545 133.179 139.125 132.583 139.948L134.48 142.985L131.888 141.373C131.687 142.059 131.644 142.787 131.762 143.494Z" fill="#57B894"/>
<path d="M131.937 142.894C132.106 143.917 132.601 144.847 133.338 145.528C134.075 146.209 135.01 146.6 135.986 146.635C136.961 146.67 137.919 146.347 138.697 145.72C139.476 145.093 140.028 144.201 140.261 143.192C140.494 142.184 140.395 141.121 139.979 140.181C139.562 139.242 138.855 138.483 137.976 138.032C137.096 137.581 136.098 137.466 135.148 137.705C134.198 137.945 133.354 138.525 132.758 139.347L134.655 142.385L132.063 140.773C131.862 141.459 131.819 142.187 131.937 142.894Z" stroke="#3F3D56" stroke-miterlimit="10"/>
<path d="M120.041 24.7754C120.201 21.5191 121.53 18.4524 123.753 16.2078C125.977 13.9631 128.925 12.7117 131.99 12.7116C132.354 12.7116 132.713 12.7318 133.068 12.7656C134.466 10.2075 136.47 8.08423 138.881 6.60793C141.291 5.13162 144.023 4.35394 146.805 4.35254C149.586 4.35114 152.319 5.12608 154.731 6.59996C157.143 8.07383 159.149 10.1951 160.549 12.7518C160.849 12.7278 161.151 12.7117 161.456 12.7117C164.522 12.7117 167.47 13.9631 169.693 16.2078C171.916 18.4524 173.245 21.5191 173.405 24.7754" fill="#F2F2F2"/>
<path d="M122.534 23.7963C122.694 20.54 124.023 17.4733 126.246 15.2286C128.469 12.984 131.417 11.7326 134.483 11.7325C134.846 11.7325 135.205 11.7527 135.561 11.7865C136.959 9.22836 138.963 7.10511 141.373 5.6288C143.784 4.1525 146.516 3.37481 149.298 3.37341C152.079 3.37202 154.812 4.14695 157.224 5.62083C159.636 7.09471 161.642 9.21594 163.042 11.7727C163.342 11.7487 163.644 11.7325 163.949 11.7325C167.014 11.7326 169.963 12.984 172.186 15.2286C174.409 17.4733 175.738 20.54 175.898 23.7963" stroke="#FC559B" stroke-miterlimit="10"/>
<path d="M33.0933 85.2788C33.2535 82.0225 34.5822 78.9558 36.8055 76.7111C39.0288 74.4665 41.977 73.2151 45.0422 73.215C45.4058 73.215 45.7649 73.2352 46.1203 73.269C47.5181 70.7109 49.5223 68.5876 51.9328 67.1113C54.3433 65.635 57.0757 64.8573 59.8572 64.8559C62.6386 64.8545 65.3717 65.6295 67.7835 67.1033C70.1953 68.5772 72.2014 70.6984 73.6015 73.2552C73.9013 73.2312 74.2031 73.215 74.5087 73.215C77.5739 73.2151 80.5221 74.4665 82.7454 76.7111C84.9687 78.9558 86.2974 82.0225 86.4576 85.2788" fill="#F2F2F2"/>
<path d="M35.5854 84.2996C35.7456 81.0433 37.0744 77.9766 39.2977 75.732C41.521 73.4873 44.4692 72.2359 47.5344 72.2359C47.898 72.2359 48.2571 72.256 48.6125 72.2898C50.0103 69.7317 52.0145 67.6084 54.425 66.1321C56.8355 64.6558 59.5679 63.8782 62.3493 63.8768C65.1308 63.8754 67.8639 64.6503 70.2757 66.1242C72.6875 67.5981 74.6936 69.7193 76.0936 72.276C76.3935 72.2521 76.6953 72.2359 77.0009 72.2359C80.066 72.2359 83.0143 73.4873 85.2376 75.732C87.4608 77.9766 88.7896 81.0433 88.9498 84.2996" stroke="#FC559B" stroke-miterlimit="10"/>
<path d="M7.72461 21.5108C7.8848 18.2545 9.21357 15.1878 11.4369 12.9432C13.6601 10.6986 16.6084 9.44715 19.6735 9.44709C20.0372 9.44709 20.3963 9.46727 20.7517 9.50106C22.1495 6.94292 24.1537 4.81967 26.5642 3.34337C28.9747 1.86707 31.7071 1.08938 34.4885 1.08798C37.2699 1.08659 40.003 1.86152 42.4149 3.3354C44.8267 4.80928 46.8328 6.93051 48.2328 9.48724C48.5326 9.46329 48.8345 9.4471 49.1401 9.4471C52.2052 9.44716 55.1534 10.6986 57.3767 12.9432C59.6 15.1879 60.9288 18.2546 61.089 21.5108" fill="#F2F2F2"/>
<path d="M10.2168 20.5317C10.377 17.2754 11.7058 14.2087 13.929 11.9641C16.1523 9.71943 19.1006 8.46803 22.1657 8.46796C22.5294 8.46796 22.8885 8.48814 23.2439 8.52194C24.6416 5.9638 26.6459 3.84055 29.0564 2.36425C31.4668 0.887943 34.1993 0.110257 36.9807 0.108858C39.7621 0.107459 42.4952 0.882395 44.907 2.35627C47.3188 3.83015 49.325 5.95138 50.725 8.50812C51.0248 8.48416 51.3267 8.46797 51.6322 8.46797C54.6974 8.46804 57.6456 9.71944 59.8689 11.9641C62.0922 14.2087 63.421 17.2754 63.5812 20.5317" stroke="#FC559B" stroke-miterlimit="10"/>
<path d="M60.3628 47.3304C60.3628 47.3304 81.8687 58.6905 85.7249 57.1127C89.5811 55.5349 90.916 41.4925 90.916 41.4925L75.0461 38.3369L60.3628 47.3304Z" fill="#FC559B"/>
<path opacity="0.1" d="M60.3628 47.3304C60.3628 47.3304 81.8687 58.6905 85.7249 57.1127C89.5811 55.5349 90.916 41.4925 90.916 41.4925L75.0461 38.3369L60.3628 47.3304Z" fill="black"/>
<path d="M104.932 30.369H90.8423V43.4648H104.932V30.369Z" fill="#FF6584"/>
<path opacity="0.1" d="M104.932 30.369H90.8423V43.4648H104.932V30.369Z" fill="black"/>
<path d="M78.0129 86.1443C78.0129 86.1443 77.4197 99.8711 81.4242 99.5556C85.4288 99.24 81.4242 86.6176 81.4242 86.6176L78.0129 86.1443Z" fill="#FBBEBE"/>
<path d="M94.4757 32.3413C94.4757 32.3413 95.3656 38.3369 93.7341 39.1258C92.1027 39.9147 91.0645 40.5458 91.0645 40.5458L94.7724 43.2281L101.595 43.7014L103.375 42.2814L105.006 40.7036C105.006 40.7036 102.336 40.0725 102.336 38.6525C102.336 37.2325 102.188 32.9724 102.188 32.9724L94.4757 32.3413Z" fill="#FBBEBE"/>
<path opacity="0.1" d="M94.4757 32.3413C94.4757 32.3413 95.3656 38.3369 93.7341 39.1258C92.1027 39.9147 91.0645 40.5458 91.0645 40.5458L94.7724 43.2281L101.595 43.7014L103.375 42.2814L105.006 40.7036C105.006 40.7036 102.336 40.0725 102.336 38.6525C102.336 37.2325 102.188 32.9724 102.188 32.9724L94.4757 32.3413Z" fill="black"/>
<path d="M85.1316 88.511C85.1316 88.511 80.8304 103.185 80.8304 113.914C80.8304 113.914 73.7112 130.954 74.0078 139.316L72.228 150.834L74.7494 151.781L76.6775 150.045C76.6775 150.045 77.2708 143.892 79.1989 140.894C81.127 137.896 85.5765 123.696 85.5765 123.696C85.5765 123.696 97.4418 97.1889 96.9969 93.4022C96.5519 89.6155 85.1316 88.511 85.1316 88.511Z" fill="#FBBEBE"/>
<path d="M111.384 85.1976C111.384 85.1976 114.202 86.6176 110.198 111.862C110.198 111.862 112.422 128.587 110.494 137.738L110.198 146.89H107.083L106.49 145.943C106.49 145.943 106.341 137.738 105.303 135.529C104.265 133.32 103.375 120.54 103.375 120.54C103.375 120.54 98.6288 94.5066 99.667 92.2977C100.705 90.0887 111.384 85.1976 111.384 85.1976Z" fill="#FBBEBE"/>
<path d="M71.7833 148.152C71.7833 148.152 72.8216 150.676 74.7497 150.045C76.6778 149.414 77.1227 149.414 77.1227 149.414C77.1227 149.414 75.7879 156.672 76.2328 160.143C76.6778 163.614 75.9362 165.823 72.9699 165.823C70.0035 165.823 69.5586 162.036 69.5586 162.036L70.8934 153.043L71.7833 148.152Z" fill="#2F2E41"/>
<path d="M105.896 144.207C105.896 144.207 106.934 146.416 108.566 145.943C110.197 145.47 110.79 144.681 110.79 144.681C110.79 144.681 110.642 149.572 111.235 151.781C111.829 153.99 113.164 160.301 110.049 160.616C109.193 160.727 108.327 160.541 107.579 160.086C106.831 159.632 106.241 158.932 105.896 158.092V144.207L105.896 144.207Z" fill="#2F2E41"/>
<path d="M98.4805 36.4436C102.085 36.4436 105.006 33.3354 105.006 29.5013C105.006 25.6671 102.085 22.5589 98.4805 22.5589C94.8763 22.5589 91.9546 25.6671 91.9546 29.5013C91.9546 33.3354 94.8763 36.4436 98.4805 36.4436Z" fill="#FBBEBE"/>
<path d="M110.494 41.9659C110.494 41.9659 105.325 39.8066 103.46 40.0973C102.656 40.8237 101.719 41.3649 100.709 41.6865C99.6989 42.0081 98.6369 42.1032 97.5903 41.9659C94.0307 41.4925 92.6387 39.6753 92.6387 39.6753C92.6387 39.6753 83.0553 41.9659 83.6485 42.9125C84.2418 43.8592 86.9115 59.3217 86.9115 59.3217C86.9115 59.3217 88.6913 72.7329 86.6149 77.3086C84.5384 81.8842 83.5002 89.4576 84.3901 90.0887C85.28 90.7199 95.2172 93.5599 96.4037 94.3488C97.5903 95.1377 98.0352 92.4554 98.7768 92.9288C99.5184 93.4021 101.15 94.191 102.188 93.5599C103.226 92.9288 113.312 87.2487 113.015 86.1442C112.719 85.0398 108.862 71.6285 107.527 68.9462C106.193 66.264 107.231 60.5839 107.972 59.4794C108.714 58.375 110.197 57.1127 110.494 53.9571C110.79 50.8015 110.494 41.9659 110.494 41.9659Z" fill="#2F2E41"/>
<path d="M83.9758 42.4249C83.9758 42.4249 82.759 43.3859 82.314 45.437C81.8691 47.4882 81.2758 63.8973 81.2758 63.8973C81.2758 63.8973 75.7881 86.4598 76.9746 86.9332C78.1612 87.4065 81.5724 88.3532 82.0174 87.8799C82.4623 87.4065 87.5051 68.3151 87.0602 66.264C86.6152 64.2129 87.6534 58.2172 87.6534 58.2172L83.9758 42.4249Z" fill="#2F2E41"/>
<path d="M111.384 71.7863C111.384 71.7863 103.375 67.5262 102.485 70.3663C101.595 73.2063 110.939 76.2041 110.939 76.2041C110.939 76.2041 114.202 74.9419 114.202 74.153C114.202 73.3641 111.384 71.7863 111.384 71.7863Z" fill="#FBBEBE"/>
<path d="M108.863 42.597L110.494 41.9659C110.494 41.9659 111.384 41.3348 112.422 43.7015C113.46 46.0682 124.732 59.9528 122.656 64.3706C120.58 68.7885 113.757 77.7819 113.46 77.1508C113.164 76.5197 109.753 71.7863 110.346 71.313C110.939 70.8396 117.762 64.3706 116.872 63.424C115.982 62.4773 112.274 54.4305 110.197 54.1149C108.121 53.7994 108.863 42.597 108.863 42.597Z" fill="#2F2E41"/>
<path d="M91.287 29.2646C91.287 29.2646 68.6705 19.5906 49.0927 10.2816C49.0927 10.2816 38.8589 7.59929 33.5195 12.6483C33.5195 12.6483 37.969 12.0171 37.969 14.6994C37.969 14.6994 41.8252 20.0639 29.8116 21.0106C21.445 21.6699 18.1138 26.9972 16.8623 30.1709C15.8853 32.7185 14.1678 34.8669 11.961 36.3018C9.06926 38.1404 4.87825 39.493 0 37.1042C0 37.1042 0.27733 37.5577 0.803389 38.3134C10.2221 51.8445 45.2965 63.6205 57.6823 53.1385C65.3368 46.6606 77.4713 38.473 86.1701 42.597C99.8152 49.066 102.337 46.2259 102.337 46.2259L102.93 44.4903C102.93 44.4903 89.7297 40.7036 89.433 35.8124C89.1364 30.9212 91.287 29.2646 91.287 29.2646Z" fill="#FC559B"/>
<path d="M104.487 30.5268C104.487 30.5268 107.676 31.868 108.269 36.2858C108.269 36.2858 111.681 43.3859 107.824 45.1215C103.968 46.8571 103.227 46.3837 103.227 46.3837V45.5948C103.227 45.5948 107.379 42.9126 106.49 40.8614C105.6 38.8103 104.487 30.5268 104.487 30.5268Z" fill="#FC559B"/>
<path d="M98.7769 50.6438C98.7769 50.6438 99.8151 47.8037 99.5184 47.8037C99.2218 47.8037 100.725 46.057 101.308 46.6937C101.891 47.3304 102.93 49.2238 101.743 49.6971C100.557 50.1704 98.7769 50.6438 98.7769 50.6438Z" fill="#FC559B"/>
<path d="M106.087 48.958C106.087 48.958 103.375 47.9746 103.388 48.2899C103.401 48.6051 101.696 47.0811 102.27 46.4344C102.843 45.7876 104.577 44.6041 105.072 45.8452C105.567 47.0864 106.087 48.958 106.087 48.958Z" fill="#FC559B"/>
<path d="M101.743 44.6481C101.743 44.6481 103.097 43.8396 103.903 45.1117C104.71 46.3837 102.93 48.5926 101.743 48.5926C100.557 48.5926 100.557 45.9104 100.557 45.9104L101.743 44.6481Z" fill="#FC559B"/>
<path opacity="0.1" d="M101.743 44.6481C101.743 44.6481 103.097 43.8396 103.903 45.1117C104.71 46.3837 102.93 48.5926 101.743 48.5926C100.557 48.5926 100.557 45.9104 100.557 45.9104L101.743 44.6481Z" fill="black"/>
<path d="M92.8225 18.1723C92.0405 18.8581 91.2989 19.6266 90.8126 20.5725C90.5576 21.103 90.3444 21.6551 90.1753 22.2231C89.5755 24.0593 88.0846 25.9191 88.7156 27.7435C88.8957 28.264 89.1764 28.8129 89.015 29.3404C88.8717 29.8088 88.4292 30.0821 88.1092 30.4382C87.4223 31.2024 87.3069 32.3491 87.2649 33.4055C87.1881 35.3401 88.188 37.6199 89.3963 39.0681C89.6586 39.3405 89.9016 39.6332 90.1234 39.9438C90.2729 40.1914 90.3707 40.4704 90.41 40.7617C90.4493 41.0531 90.4292 41.35 90.3511 41.6324L92.1113 41.2416C92.1748 41.9329 92.1946 42.6279 92.1707 43.322C92.588 43.3708 93.0084 43.2651 93.361 43.0226C93.7137 42.7802 93.977 42.4159 94.1066 41.991C94.2062 42.486 94.3689 42.9642 94.5901 43.4124C95.1064 42.7254 95.5024 41.9453 95.7592 41.1092C96.096 40.0383 96.1683 38.8933 95.9691 37.7841C95.7827 36.974 95.5291 36.1831 95.2113 35.4207C94.5893 33.7486 94.0815 32.0316 93.5741 30.3163C93.3107 29.4254 93.044 28.5055 93.1239 27.5755L93.7493 27.5031C93.7562 27.1357 93.823 26.7724 93.9467 26.4294C94.3132 26.5119 94.6659 26.6531 94.9926 26.8481L95.7136 24.902C96.1894 25.4269 96.8723 25.6646 97.5262 25.8836L100.012 26.7161L100.027 26.1928C101.076 27.1808 102.271 27.9781 103.563 28.5528C103.49 28.459 103.437 28.3498 103.407 28.2323C103.377 28.1149 103.371 27.992 103.389 27.8718C104.001 29.039 103.756 30.4931 103.378 31.7679C103 33.0428 102.499 34.3407 102.651 35.6676C102.765 36.66 103.243 37.6091 103.154 38.6044C103.111 39.0945 102.93 39.561 102.874 40.0497C102.741 41.2152 103.317 42.3252 103.873 43.3395L104.954 41.7597C105.35 41.1816 105.758 40.5908 106.318 40.1956C106.893 39.79 107.606 39.6079 108.108 39.1032C109.002 38.2024 108.889 36.6677 108.598 35.3942C108.443 34.7172 108.256 34.0307 108.313 33.3366C108.409 32.16 109.178 31.1865 109.611 30.0989C109.919 29.3059 110.053 28.4483 110.001 27.5918C109.95 26.7353 109.715 25.9027 109.314 25.1578C108.777 24.1778 107.966 23.3885 107.46 22.3899C106.956 21.396 106.764 20.2133 106.073 19.3554C105.736 18.965 105.344 18.6327 104.911 18.3704C102.949 17.1163 100.745 16.3514 98.4653 16.1333C96.3033 15.8928 94.4793 16.7194 92.8225 18.1723Z" fill="#FF6584"/>
</g>
<defs>
<clipPath id="clip0">
<rect width="176" height="168" fill="white"/>
</clipPath>
</defs>
</svg>
